<mxfile host="app.diagrams.net" modified="2024-06-11T18:35:08.992Z" agent="Mozilla/5.0 (Windows NT 10.0; Win64; x64) AppleWebKit/537.36 (KHTML, like Gecko) Chrome/125.0.0.0 Safari/537.36" etag="1nLpbXlEdf5SDeTOAGEv" version="24.5.2" type="device">
  <diagram name="Page-1" id="2cc2dc42-3aac-f2a9-1cec-7a8b7cbee084">
    <mxGraphModel dx="1050" dy="557" grid="1" gridSize="10" guides="1" tooltips="1" connect="1" arrows="1" fold="1" page="1" pageScale="1" pageWidth="1100" pageHeight="850" background="none" math="0" shadow="0">
      <root>
        <mxCell id="0" />
        <mxCell id="1" parent="0" />
        <mxCell id="7026571954dc6520-1" value="" style="strokeWidth=1;shadow=0;dashed=0;align=center;html=1;shape=mxgraph.mockup.containers.browserWindow;rSize=0;strokeColor=#666666;mainText=,;recursiveResize=0;rounded=0;labelBackgroundColor=none;fontFamily=Verdana;fontSize=12" parent="1" vertex="1">
          <mxGeometry x="30" y="20" width="1050" height="720" as="geometry" />
        </mxCell>
        <mxCell id="7026571954dc6520-2" value="Login" style="strokeWidth=1;shadow=0;dashed=0;align=center;html=1;shape=mxgraph.mockup.containers.anchor;fontSize=17;fontColor=#666666;align=left;" parent="7026571954dc6520-1" vertex="1">
          <mxGeometry x="60" y="12" width="110" height="26" as="geometry" />
        </mxCell>
        <mxCell id="7026571954dc6520-3" value="https://www.localhost:4300/Login" style="strokeWidth=1;shadow=0;dashed=0;align=center;html=1;shape=mxgraph.mockup.containers.anchor;rSize=0;fontSize=17;fontColor=#666666;align=left;" parent="7026571954dc6520-1" vertex="1">
          <mxGeometry x="130" y="60" width="250" height="26" as="geometry" />
        </mxCell>
        <mxCell id="qT_a9oEmARD65ZwSAQc_-1" value="" style="strokeWidth=1;shadow=0;dashed=0;align=center;html=1;shape=mxgraph.mockup.forms.rrect;rSize=0;strokeColor=none;fillColor=none;" vertex="1" parent="7026571954dc6520-1">
          <mxGeometry x="400" y="230" width="320" height="400" as="geometry" />
        </mxCell>
        <mxCell id="qT_a9oEmARD65ZwSAQc_-2" value="Login" style="strokeWidth=1;shadow=0;dashed=0;align=center;html=1;shape=mxgraph.mockup.forms.anchor;fontSize=12;fontColor=#666666;align=left;resizeWidth=1;spacingLeft=0;labelPosition=center;verticalLabelPosition=middle;verticalAlign=middle;" vertex="1" parent="qT_a9oEmARD65ZwSAQc_-1">
          <mxGeometry width="50" height="20" relative="1" as="geometry">
            <mxPoint x="140" y="10" as="offset" />
          </mxGeometry>
        </mxCell>
        <mxCell id="qT_a9oEmARD65ZwSAQc_-3" value="" style="shape=line;strokeColor=#ddeeff;strokeWidth=2;html=1;resizeWidth=1;" vertex="1" parent="qT_a9oEmARD65ZwSAQc_-1">
          <mxGeometry width="300" height="10" relative="1" as="geometry">
            <mxPoint x="10" y="30" as="offset" />
          </mxGeometry>
        </mxCell>
        <mxCell id="qT_a9oEmARD65ZwSAQc_-4" value="User Name:" style="strokeWidth=1;shadow=0;dashed=0;align=center;html=1;shape=mxgraph.mockup.forms.anchor;fontSize=12;fontColor=#666666;align=left;resizeWidth=1;spacingLeft=0;" vertex="1" parent="qT_a9oEmARD65ZwSAQc_-1">
          <mxGeometry width="160" height="20" relative="1" as="geometry">
            <mxPoint x="10" y="40" as="offset" />
          </mxGeometry>
        </mxCell>
        <mxCell id="qT_a9oEmARD65ZwSAQc_-5" value="johndoe" style="strokeWidth=1;shadow=0;dashed=0;align=center;html=1;shape=mxgraph.mockup.forms.rrect;rSize=0;strokeColor=#999999;fontColor=#666666;align=left;spacingLeft=5;resizeWidth=1;" vertex="1" parent="qT_a9oEmARD65ZwSAQc_-1">
          <mxGeometry width="290" height="25" relative="1" as="geometry">
            <mxPoint x="10" y="60" as="offset" />
          </mxGeometry>
        </mxCell>
        <mxCell id="qT_a9oEmARD65ZwSAQc_-6" value="Password:" style="strokeWidth=1;shadow=0;dashed=0;align=center;html=1;shape=mxgraph.mockup.forms.anchor;fontSize=12;fontColor=#666666;align=left;resizeWidth=1;spacingLeft=0;" vertex="1" parent="qT_a9oEmARD65ZwSAQc_-1">
          <mxGeometry width="160" height="20" relative="1" as="geometry">
            <mxPoint x="10" y="95" as="offset" />
          </mxGeometry>
        </mxCell>
        <mxCell id="qT_a9oEmARD65ZwSAQc_-7" value="********" style="strokeWidth=1;shadow=0;dashed=0;align=center;html=1;shape=mxgraph.mockup.forms.rrect;rSize=0;strokeColor=#999999;fontColor=#666666;align=left;spacingLeft=5;resizeWidth=1;" vertex="1" parent="qT_a9oEmARD65ZwSAQc_-1">
          <mxGeometry width="290" height="25" relative="1" as="geometry">
            <mxPoint x="10" y="115" as="offset" />
          </mxGeometry>
        </mxCell>
        <mxCell id="qT_a9oEmARD65ZwSAQc_-8" value="Login" style="strokeWidth=1;shadow=0;dashed=0;align=center;html=1;shape=mxgraph.mockup.forms.rrect;rSize=5;strokeColor=none;fontColor=#ffffff;fillColor=#66bbff;fontSize=16;fontStyle=1;" vertex="1" parent="qT_a9oEmARD65ZwSAQc_-1">
          <mxGeometry y="1" width="290" height="30" relative="1" as="geometry">
            <mxPoint x="10" y="-219" as="offset" />
          </mxGeometry>
        </mxCell>
        <mxCell id="qT_a9oEmARD65ZwSAQc_-9" value="Register" style="strokeWidth=1;shadow=0;dashed=0;align=center;html=1;shape=mxgraph.mockup.forms.anchor;fontSize=12;fontColor=#9999ff;align=left;spacingLeft=0;fontStyle=4;resizeWidth=1;" vertex="1" parent="qT_a9oEmARD65ZwSAQc_-1">
          <mxGeometry y="1" width="240" height="20" relative="1" as="geometry">
            <mxPoint x="80" y="-179" as="offset" />
          </mxGeometry>
        </mxCell>
        <mxCell id="qT_a9oEmARD65ZwSAQc_-10" value="New User?" style="strokeWidth=1;shadow=0;dashed=0;align=center;html=1;shape=mxgraph.mockup.forms.anchor;fontSize=12;fontColor=#666666;align=left;spacingLeft=0;resizeWidth=1;" vertex="1" parent="qT_a9oEmARD65ZwSAQc_-1">
          <mxGeometry y="1" width="240" height="20" relative="1" as="geometry">
            <mxPoint x="10" y="-179" as="offset" />
          </mxGeometry>
        </mxCell>
        <mxCell id="qT_a9oEmARD65ZwSAQc_-16" value="Go back Home" style="strokeWidth=1;shadow=0;dashed=0;align=center;html=1;shape=mxgraph.mockup.forms.anchor;fontSize=12;fontColor=#9999ff;align=left;spacingLeft=0;fontStyle=4;resizeWidth=1;" vertex="1" parent="qT_a9oEmARD65ZwSAQc_-1">
          <mxGeometry x="90" y="280" width="110" height="20" as="geometry" />
        </mxCell>
        <mxCell id="qT_a9oEmARD65ZwSAQc_-11" value="" style="verticalLabelPosition=bottom;shadow=0;dashed=0;align=center;html=1;verticalAlign=top;strokeWidth=1;shape=mxgraph.mockup.graphics.simpleIcon;strokeColor=#999999;" vertex="1" parent="7026571954dc6520-1">
          <mxGeometry x="530" y="170" width="50" height="50" as="geometry" />
        </mxCell>
        <mxCell id="qT_a9oEmARD65ZwSAQc_-12" value="1" style="ellipse;shape=doubleEllipse;whiteSpace=wrap;html=1;aspect=fixed;" vertex="1" parent="7026571954dc6520-1">
          <mxGeometry x="680" y="120" width="70" height="70" as="geometry" />
        </mxCell>
        <mxCell id="qT_a9oEmARD65ZwSAQc_-15" value="&lt;ol style=&quot;font-size: 16px;&quot;&gt;&lt;li style=&quot;font-size: 16px;&quot;&gt;&lt;span style=&quot;background-color: initial;&quot;&gt;Main Body Component&lt;/span&gt;&lt;/li&gt;&lt;/ol&gt;" style="text;strokeColor=none;fillColor=none;html=1;whiteSpace=wrap;verticalAlign=middle;overflow=hidden;fontSize=16;" vertex="1" parent="1">
          <mxGeometry x="1100" y="130" width="220" height="160" as="geometry" />
        </mxCell>
      </root>
    </mxGraphModel>
  </diagram>
</mxfile>
